<?xml version="1.0" encoding="UTF-8"?>
<svg id="Calque_2" data-name="Calque 2" xmlns="http://www.w3.org/2000/svg" viewBox="0 0 258.81 128">
  <defs>
    <style>
      .cls-1 {
        fill: #14b8a6;
      }
    </style>
  </defs>
  <g id="Calque_1-2" data-name="Calque 1">
    <g>
      <polygon class="cls-1" points="85.5 117.98 85.5 128 0 128 0 41.77 11.45 41.77 11.45 117.98 85.5 117.98"/>
      <polygon class="cls-1" points="173.31 10.02 173.31 0 258.81 0 258.81 86.23 247.36 86.23 247.36 10.02 173.31 10.02"/>
      <rect class="cls-1" x="37.67" y="21.06" width="13.92" height="59.12"/>
      <path class="cls-1" d="M205.15,21.06h-12.86l-23.52,59.13h14.66l4.31-11.92h21.95l4.31,11.92h14.66l-23.51-59.13ZM191.96,56.61l6.76-18.68,6.75,18.68h-13.51Z"/>
      <path class="cls-1" d="M62.7,73.38l7.08-11.29c4.41,3.52,9.5,6.53,15.25,6.53s6.96-2.27,6.96-5.19c0-10.31-24.23-7.32-24.23-25.2,0-10.74,8.91-18.12,19.04-18.12,6.47,0,13.22,1,18.13,4.44l-4.89,11.79c-4.76-3.09-8.9-3.8-13.23-3.8-3.02,0-5.56,1.89-5.56,4.9,0,9.19,25.63,7.51,25.74,25,.07,10.48-7.42,18.69-22.2,18.69-8.17,0-17.4-3.8-22.09-7.75Z"/>
      <path class="cls-1" d="M139.37,106.55v4h-13.24v-22.99s13.24,0,13.24,0v4h-8.22s0,5,0,5h6.99v5.01l-6.97-.02v5.01h8.2Z"/>
      <path class="cls-1" d="M160.23,95.48l-6.3,15.06h-5.52l-6.28-15.06h5.49l3.66,9.2,3.86-9.2h5.09Z"/>
      <path class="cls-1" d="M178.1,104.31h-10.47c.42,1.48,1.67,2.34,3.53,2.34,1.41,0,2.34-.4,3.32-1.26l2.66,2.8c-1.38,1.56-3.4,2.37-6.14,2.37-5.13,0-8.45-3.2-8.45-7.56s3.38-7.51,7.92-7.51c4.25,0,7.71,2.74,7.71,7.56,0,.38-.05.86-.08,1.26ZM167.55,101.62h5.9c-.27-1.53-1.38-2.5-2.95-2.5s-2.66.97-2.95,2.5Z"/>
      <path class="cls-1" d="M198.14,102.07v8.48h-5.08v-7.63c0-2.13-.91-3.04-2.38-3.04-1.63,0-2.89,1.04-2.89,3.5v7.16h-5.08v-14.82h4.84v1.61c1.15-1.23,2.78-1.86,4.6-1.86,3.4,0,5.99,2,5.99,6.59Z"/>
      <path class="cls-1" d="M212.17,110.55h-2.81c-2.68,0-5.24-1.47-5.24-5.51l.05-5.28h-2v-4.12l1.98.02v-5.04h5.03v5.04l2.98-.02v4.12h-3v5.41c-.01,1.34,0,1.44.86,1.44.6,0,1.53,0,2.16,0v3.93Z"/>
      <path class="cls-1" d="M216.11,109.04l1.35-3.5c1.19.83,2.92,1.34,4.49,1.34s2.02-.38,2.02-.99c0-1.96-7.6.27-7.6-5.57,0-2.74,2.23-4.84,6.27-4.84,1.81,0,3.8.43,5.08,1.24l-1.35,3.47c-1.28-.81-2.56-1.08-3.71-1.08-1.52,0-2.07.48-2.07,1.02,0,2.02,7.58-.16,7.58,5.62,0,2.69-2.19,4.79-6.36,4.79-2.19,0-4.44-.62-5.7-1.51Z"/>
      <path class="cls-1" d="M131.51,57.81h0v22.38h-13.92V21.07h24.42c7.31-.41,15.9,6.33,16.03,18.66.1,9.56-5.43,12.58-11.74,16.37l20.51,24.1h-17.1l-18.2-22.38ZM137.77,32.11c-2.07-.11-6.1,0-6.1,0l-.07,14.93s4.41.01,6.17.01c3.19,0,6.73-2.12,6.73-7.49,0-4.28-2.57-7.25-6.73-7.46Z"/>
    </g>
  </g>
</svg>